<?xml version="1.0" encoding="utf-8"?>
<!-- Generator: $$$/GeneralStr/196=Adobe Illustrator 27.6.0, SVG Export Plug-In . SVG Version: 6.00 Build 0)  -->
<svg version="1.1" id="Ebene_1" xmlns="http://www.w3.org/2000/svg" xmlns:xlink="http://www.w3.org/1999/xlink" x="0px" y="0px"
	 viewBox="0 0 850.4 283.5" style="enable-background:new 0 0 850.4 283.5;" xml:space="preserve">
<style type="text/css">
	.st0{fill:#FFFFFF;}
	.st1{fill:#E40422;}
	.st2{clip-path:url(#SVGID_00000064324462456599315760000010876194873107280830_);}
	.st3{fill:#770088;}
	.st4{fill:#004CFF;}
	.st5{fill:#028121;}
	.st6{fill:#FFEE00;}
	.st7{fill:#FF8D00;}
	.st8{fill:#E50000;}
</style>
<g id="Hintergrund_weiß">
	<rect x="1.4" y="1.4" class="st0" width="847.6" height="280.6"/>
</g>
<g id="Frame">
	<path d="M0,0v283.5h850.4V0H0z M566.9,277.8H5.7V5.7h561.3V277.8z M844.7,277.8H572.6V5.7h272.1V277.8z"/>
</g>
<g id="Berlin">
	<path class="st1" d="M485.5,96v62.4c0,0.8-0.5,1.1-1,0.3L449,95.5c-0.4-0.7-1.2-1.1-2-1.1h-15.3c-0.9,0-1.6,0.6-1.6,1.5
		c0,0,0,0.1,0,0.1v91.2c0,0.9,0.6,1.6,1.5,1.6c0,0,0.1,0,0.1,0h13.2c0.9,0,1.6-0.6,1.6-1.5c0,0,0-0.1,0-0.1v-62.3
		c0-0.8,0.5-1.1,1-0.3l35.6,63.1c0.4,0.7,1.2,1.1,2,1.1h15.3c0.9,0,1.6-0.7,1.6-1.5c0,0,0-0.1,0-0.1V96c0-0.9-0.7-1.6-1.5-1.6
		c0,0-0.1,0-0.1,0h-13.2c-0.9,0-1.6,0.6-1.6,1.5C485.5,95.9,485.5,96,485.5,96 M390.2,188.8h13.4c0.9,0,1.6-0.6,1.6-1.5
		c0,0,0-0.1,0-0.1V96c0-0.9-0.6-1.6-1.5-1.6c0,0-0.1,0-0.1,0h-13.4c-0.9,0-1.6,0.7-1.6,1.5c0,0,0,0.1,0,0.1v91.2
		c0,0.9,0.7,1.6,1.5,1.6C390.1,188.8,390.2,188.8,390.2,188.8 M336.9,172.3V96c0-0.9-0.7-1.6-1.5-1.6c0,0-0.1,0-0.1,0h-13.4
		c-0.9,0-1.6,0.6-1.6,1.5c0,0,0,0.1,0,0.1v91.2c0,0.9,0.6,1.6,1.5,1.6c0,0,0.1,0,0.1,0h46c0.9,0,1.6-0.6,1.6-1.5c0,0,0-0.1,0-0.1
		v-12.4c0-0.9-0.6-1.6-1.5-1.6c0,0-0.1,0-0.1,0h-30.2C337.3,173.2,336.9,172.8,336.9,172.3C336.9,172.4,336.9,172.4,336.9,172.3
		 M249.6,110h12.3c10.9,0,19.7,5.8,19.7,17.8s-8.8,17.8-19.8,17.8h-12.2c-0.4,0-0.8-0.3-0.8-0.8c0,0,0,0,0-0.1v-34
		c-0.1-0.4,0.2-0.7,0.6-0.8C249.5,110,249.5,110,249.6,110 M280.9,188.7h17c1.4,0,1.8-0.9,1-2l-20.2-27.4c-0.3-0.3-0.2-0.8,0.1-1.1
		c0.1,0,0.1-0.1,0.2-0.1c12-4.9,20-15.5,20-30.3c0-21-15.9-33.4-36.2-33.4h-28.9c-0.9,0-1.6,0.7-1.6,1.5c0,0,0,0.1,0,0.1v91.2
		c0,0.9,0.7,1.6,1.5,1.6c0,0,0.1,0,0.1,0h13.4c0.9,0,1.6-0.7,1.6-1.5c0,0,0-0.1,0-0.1v-25.1c0-0.4,0.3-0.8,0.7-0.8c0,0,0,0,0.1,0
		h10.3c0.4,0,0.8,0.2,1.1,0.5l18.1,25.9C279.4,188.4,280.1,188.8,280.9,188.7 M207.6,108.4V96c0-0.9-0.7-1.6-1.5-1.6
		c0,0-0.1,0-0.1,0h-49.1c-0.9,0-1.6,0.7-1.6,1.5c0,0,0,0.1,0,0.1v91.2c0,0.9,0.7,1.6,1.5,1.6c0,0,0.1,0,0.1,0h49.1
		c0.9,0,1.6-0.7,1.6-1.5c0,0,0-0.1,0-0.1v-12.4c0-0.9-0.7-1.6-1.5-1.6c0,0-0.1,0-0.1,0h-33.5c-0.4,0-0.8-0.3-0.8-0.7c0,0,0,0,0-0.1
		v-22.7c0-0.4,0.3-0.8,0.7-0.8c0,0,0,0,0.1,0h33.5c0.9,0,1.6-0.6,1.6-1.5c0,0,0-0.1,0-0.1V135c0-0.9-0.7-1.6-1.5-1.6
		c0,0-0.1,0-0.1,0h-33.5c-0.4,0.1-0.7-0.2-0.8-0.6c0-0.1,0-0.1,0-0.2v-21.7c0-0.4,0.3-0.8,0.7-0.8c0,0,0,0,0.1,0h33.5
		c0.9,0,1.6-0.7,1.6-1.5C207.7,108.5,207.7,108.5,207.6,108.4 M102.4,173.1H88.1c-0.4,0-0.8-0.3-0.8-0.7c0,0,0,0,0-0.1v-22.7
		c-0.1-0.4,0.2-0.8,0.6-0.8c0.1,0,0.1,0,0.2,0h14.3c8.8,0,13.6,5,13.6,12.1S111.2,173.1,102.4,173.1 M101.1,110
		c8.5,0,13.2,4.6,13.2,11.6s-4.7,11.7-13.2,11.7h-13c-0.4,0.1-0.7-0.2-0.8-0.6c0-0.1,0-0.1,0-0.2v-21.7c-0.1-0.4,0.2-0.7,0.6-0.8
		c0.1,0,0.1,0,0.2,0L101.1,110z M120.8,139.7c6.9-4.2,11-11.8,10.8-19.8c0-14.4-10-25.5-28.3-25.5H72.5c-0.9,0-1.6,0.6-1.6,1.5
		c0,0,0,0.1,0,0.1v91.2c0,0.9,0.6,1.6,1.5,1.6c0,0,0.1,0,0.1,0h32c18.9,0,28.9-11.5,28.9-26.6c0-9.8-4.7-17.3-12.6-21.4
		C120.3,140.4,120.3,140,120.8,139.7"/>
</g>
<g>
	<defs>
		<path id="SVGID_1_" d="M750.3,222.2c0,0-5-32.9-7.3-46.7l1-0.2c1.7-0.4,2.7-2,2.3-3.6c-0.1-0.3-0.2-0.6-0.3-0.9
			c-5.6-9.7-7.6-21.7-7.6-33.7c0-7.1,1.2-14.2,3.6-21c0.1-0.4,0.3-0.8,0.4-1.1l0.3-0.8c2.6-5.8,4.3-12.1,5-18.4
			c0.7-8.6-0.7-17.3-4.1-25.3c-0.2-0.3-0.3-0.5-0.5-0.8c2.1-2.2,2.4-5.4,0.9-8c-1.8-3.2-5.6-4.4-8.4-2.8c-0.3,0.2-1,0.7-1.3,0.9
			c-0.5-0.4-0.8-0.6-0.8-0.6s-0.8-0.5-1.5-0.9c0,0-0.3-0.1-0.3-0.1c-3-1.3-6.1-2-9.4-2c-1.6,0-3.2,0.2-4.8,0.5
			c-3.3,0.7-6.4,2.1-9.1,4.1c-0.9,0.3-1.9,0.5-2.9,0.5l-3.8,0.2c-1.8,0.1-3.8,0-3.8,0c-0.9,0-1.6,0.7-1.6,1.6c0,0.1,0.6,5.3,0.6,5.3
			c0.1,1.3,0.7,2.5,1.8,3.2l0.1,0.1c0.3,0.1,0.5,0.4,0.6,0.6c0.4,1,1,1.9,1.8,2.6c0.3,0.2,0.7,0.1,0.7-0.2c0.7-2.8,2.4,0.2,5.7-1.5
			c0.8-0.4,1.3,1.6,0.9,2.4l-0.3,0.8c-0.7,1.7-2.2,2.9-4,3.2c-1.4,0.2-2.2,0.3-2.2,0.6c0.2,1.6,0,3,1.6,4c0.2,0.1,0.5,0.2,0.7,0.3
			c2.5,0.7,9.8,3.5,0.5,14.5c-0.6,0.6-1.1,1.3-1.6,2c-0.2,0.3-0.4,0.6-0.5,0.9l-0.2,0.4l-28-10.5c-1-0.5-1.8-1.1-2.4-2l-2.8-4.7
			c-1.3-2.2-3.6-3.5-6.2-3.5c-1.3-0.1-2.6-0.1-3.9,0c-0.8,0-1.3,0.2-1.5,0.7c-0.2,1.2,0,2.5,0.6,3.5l2.4,4.4
			c0.2,0.3,3.2,7.1,3.2,7.1c0.3,0.8,0.8,1.6,1.5,2.1l28.7,21.7l-30.3,15.1c-0.9,0.5-1.9,0.6-2.8,0.3l-2.7-0.8
			c-5-2.2-8.7-0.7-10.9,1.2l-0.8,0.8c-0.6,0.5-0.6,1.4-0.1,2c0.1,0.2,0.3,0.3,0.5,0.4c0,0,4.8,2.8,5.8,3.5l7.4,4.4
			c1.2,0.7,2.5,0.9,3.8,0.6l29.4-5.9c0.5,7,1.7,13.9,3.5,20.6c-7.8,7.6-13,17.5-15,28.2c-1.4,7.9-1,15.1,1.2,23.6
			c-4.1,0.2-8.1,0.8-11.4,3.1s-3.8,6.1-3.8,8l23,0.1h1.9c1.4-0.1,2.6-1.1,3-2.4c0.2-0.8,0.3-1.6,0.4-2.4c0.7-6.1,2.6-12.1,5.4-17.6
			c2.5-4.6,5.5-8.9,9.2-12.6c7,9.7,15.8,17.8,26,24.1c-3.3,0.2-6.6,1.1-9.6,2.6c-3,1.8-4.8,5-4.8,8.5h23.8c1.6,0,3-1,3.5-2.5
			c0-0.2,0.1-0.3,0.1-0.5c0-0.1,0-0.2,0-0.3C750.3,222.7,750.3,222.4,750.3,222.2z"/>
	</defs>
	<clipPath id="SVGID_00000057106770630380236020000005870268733972713387_">
		<use xlink:href="#SVGID_1_"  style="overflow:visible;"/>
	</clipPath>
	<g style="clip-path:url(#SVGID_00000057106770630380236020000005870268733972713387_);">
		<path class="st3" d="M568.4,55.7h276.1v170.9H568.4V55.7z"/>
		<path class="st4" d="M568.4,55.7h276.1v142.4H568.4V55.7z"/>
		<path class="st5" d="M568.4,55.7h276.1v114H568.4V55.7z"/>
		<path class="st6" d="M568.4,55.7h276.1v85.5H568.4V55.7z"/>
		<path class="st7" d="M568.4,55.7h276.1v57H568.4V55.7z"/>
		<path class="st8" d="M568.4,55.7h276.1v28.5H568.4V55.7z"/>
	</g>
</g>
</svg>
